<svg width="274" height="52" viewBox="0 0 274 52" fill="none" xmlns="http://www.w3.org/2000/svg">
<path fill-rule="evenodd" clip-rule="evenodd" d="M17.7758 9.64141C17.0946 9.64141 16.5263 9.51804 15.8826 9.39711V27.3049C15.8826 27.731 15.8446 27.8519 15.6921 28.0336L9.32621 34.5304C10.2739 35.2591 11.4105 35.7462 12.5867 35.7462C16.6017 35.7462 21.1476 32.2225 23.2715 23.4213C23.3844 22.9342 23.6488 22.8133 23.6488 23.6629V24.2709C23.6488 33.9218 19.0633 42.6021 12.2828 42.6021C4.89384 42.6021 0.461365 33.6775 0.461365 24.3916C0.461365 17.4114 2.84533 10.9154 8.26503 8.18401C8.49354 8.05976 8.53155 8.24141 8.37852 8.42569C5.99237 11.3989 4.70334 16.2566 4.70334 21.1134C4.70334 26.2736 5.99237 31.3729 8.87137 34.1069L10.4629 32.1616C10.9953 31.4938 11.1066 30.8885 11.1066 29.9146V7.81791C9.36422 6.78664 7.81238 6.17869 6.3702 6.17869C4.40099 6.17869 2.619 7.57274 0.87666 10.9754C0.6878 11.3389 0.572671 11.3389 0.572671 10.9754C0.801182 4.11596 4.62732 0.229736 8.41653 0.229736C12.7751 0.229736 16.7906 3.63244 21.1871 3.63244C22.739 3.63244 24.3321 3.08206 25.6576 1.92986C25.8465 1.80894 25.8839 2.05061 25.8085 2.29246C24.4455 7.75789 21.1096 9.64141 17.7758 9.64141ZM38.3908 42.0577C38.2377 42.2996 38.2377 42.2395 38.1242 42.1186L35.0929 37.8089C34.7889 37.3819 34.6379 37.0193 34.6379 36.2297V19.5951C34.6379 19.4141 34.6379 19.2298 34.4865 19.048L33.4634 17.5897C33.3483 17.4723 33.1974 17.4114 33.0465 17.5323L31.1152 18.9871V34.6538C31.1152 34.8957 31.0757 35.1382 31.2282 35.3192L32.1004 36.5323C32.3274 36.835 32.7045 37.2009 33.0465 37.0193L33.3483 36.835C33.7277 36.5923 33.8054 36.9558 33.5769 37.261L30.0921 42.0577C29.939 42.2996 29.9011 42.2395 29.7882 42.1186L26.7181 37.748C26.341 37.261 26.341 37.1402 26.341 36.3506V9.39711C26.341 9.09454 26.341 9.03101 26.1504 8.78934L25.771 8.24141C25.3932 7.69699 25.2423 7.81791 24.7495 8.18401L23.9907 8.72844C23.8773 8.78934 23.7638 8.54661 23.9526 8.24141L27.9682 2.83951C28.1212 2.59766 28.1212 2.65856 28.2342 2.77949L30.6598 6.36296C30.9638 6.84736 31.1152 7.15011 31.1152 7.93884V18.0766L36.1534 12.9781C36.3064 12.8563 36.4574 12.8563 36.5709 13.0382L39.0346 16.6827C39.3743 17.1671 39.4498 17.5323 39.4498 18.1375V34.7723C39.4498 35.0775 39.4498 35.1382 39.6403 35.3801L40.5879 36.6532C40.9658 37.2009 41.1167 37.0793 41.6095 36.7165L42.3683 36.1697C42.4812 36.1088 42.5968 36.3506 42.4058 36.6532L38.3908 42.0577ZM54.531 21.9639L47.8238 28.7024V33.8618C47.8238 34.3453 47.8618 34.5304 48.1278 34.7114L50.2875 36.5323C50.6648 36.835 51.3107 37.1402 51.6902 36.7741L53.6985 34.8957C54.0382 34.5905 54.3047 34.7723 54.1142 35.0175L48.6207 42.1186C48.5056 42.2996 48.5452 42.2395 48.3938 42.1186L43.5044 37.9897C43.1249 37.688 43.0121 37.5637 43.0121 36.7165V17.5323C43.0121 17.2271 43.0891 17.1062 43.3139 16.9853L51.3107 12.8563C51.4242 12.7965 51.5371 12.7356 51.6125 12.9781L54.6065 21.4768C54.682 21.6611 54.682 21.8429 54.531 21.9639ZM47.9015 16.0748L47.8238 16.1323V27.9153L50.4765 24.3916C50.629 24.2109 50.629 24.0864 50.5535 23.9081L47.9015 16.0748ZM81.9212 34.4695L76.4651 41.9977C76.3126 42.1786 76.1991 42.2996 76.0483 42.1786C72.7878 39.5689 69.9848 38.1106 67.1434 38.1106C64.793 38.1106 62.4825 39.3846 59.9058 42.1186C59.6773 42.3605 59.5265 42.2996 59.6773 41.8769C61.0424 38.3533 62.8618 34.6538 65.135 32.9512C65.1725 32.7096 65.2121 31.92 65.2121 30.8252V12.9781C65.2121 12.7356 65.2881 12.6147 65.439 12.4937L69.7579 8.30494C68.8102 8.60751 67.7496 8.85269 66.8394 8.85269C62.8999 8.85269 60.891 5.69516 60.1702 0.716761C60.1322 0.471586 60.2076 0.411561 60.3211 0.471586C62.3315 2.05061 63.9984 2.59766 65.6279 2.59766C68.3554 2.59766 72.2574 0.229736 74.6458 0.229736C79.4575 0.229736 82.1117 3.44816 82.1117 13.952V33.8009C82.1117 34.1069 82.0341 34.2879 81.9212 34.4695ZM77.3358 13.952C77.3358 8.36566 76.2371 6.84736 74.5323 6.84736C73.2806 6.84736 71.6892 7.63696 69.9848 8.24141V26.4544C69.9848 26.7604 69.9094 27.0023 69.7959 27.1265L65.2881 32.8879C66.46 32.1016 67.7496 31.7381 69.0371 31.7381C71.8026 31.7381 74.7228 33.3747 77.0714 35.1382C77.2603 35.3192 77.3358 35.1382 77.3358 34.8321V13.952ZM95.6813 42.0577C95.5305 42.2996 95.4925 42.2395 95.379 42.1186L91.9301 37.261L87.8376 42.1186C87.6866 42.2996 87.6486 42.2395 87.4977 42.0577L84.8831 38.2924C84.4657 37.748 84.4283 37.6237 84.4283 36.8949V19.1714C84.4283 18.8662 84.5792 18.8063 84.6546 18.7454L93.4461 12.9172C93.5971 12.7965 93.7479 12.7965 93.901 13.0382L96.2496 16.8035C96.5895 17.3479 96.7061 17.654 96.7061 18.0167V35.1382L97.3878 36.1088C98.2205 37.261 98.3333 37.2009 98.7128 36.8949L99.2437 36.4714C99.585 36.1697 99.8493 36.4113 99.5455 36.835L95.6813 42.0577ZM91.9301 19.4741C91.9301 19.108 91.8906 18.9271 91.7038 18.6245L90.3387 16.4409C90.2633 16.3166 90.2633 16.38 90.1482 16.4409L89.2004 17.1062V34.6538C89.2004 35.2591 89.2781 35.5619 89.5441 35.9271L90.0369 36.6532C90.3766 37.1402 90.7936 37.3819 91.2864 37.0193L91.9301 36.5323V19.4741ZM104.51 42.0577C104.357 42.2996 104.32 42.2395 104.206 42.1186L101.139 37.748C100.759 37.261 100.759 37.1402 100.759 36.3506V19.5951C100.759 19.2932 100.759 19.2298 100.571 18.9871L100.191 18.4427C99.8119 17.8958 99.6605 18.0167 99.1682 18.3793L98.4088 18.9271C98.296 18.9871 98.1825 18.7454 98.3713 18.4427L102.389 13.0382C102.542 12.7965 102.542 12.8563 102.653 12.9781L105.079 16.5583C105.383 17.0453 105.533 17.3479 105.533 18.1375V34.6538C105.533 34.8957 105.496 35.1382 105.647 35.3192L106.519 36.5323C106.748 36.835 107.125 37.2009 107.465 37.0193L107.769 36.835C108.148 36.5923 108.224 36.9558 107.997 37.261L104.51 42.0577ZM102.577 11.5234C102.466 11.7041 102.426 11.6441 102.313 11.5234L99.432 7.45531C99.3565 7.33089 99.3565 7.21014 99.47 7.02831L102.313 3.02116C102.426 2.90024 102.466 2.90024 102.577 3.02116L105.458 7.08921C105.571 7.21014 105.571 7.33089 105.458 7.45531L102.577 11.5234ZM113.036 42.0577C112.884 42.2996 112.847 42.2395 112.733 42.1186L109.662 37.748C109.285 37.261 109.285 37.1402 109.285 36.3506V9.39711C109.285 9.09454 109.285 9.03101 109.096 8.78934L108.716 8.24141C108.337 7.69699 108.186 7.81791 107.693 8.18401L106.936 8.72844C106.821 8.78934 106.708 8.54661 106.899 8.24141L110.914 2.83951C111.065 2.59766 111.065 2.65856 111.18 2.77949L113.604 6.36296C113.908 6.84736 114.059 7.15011 114.059 7.93884V34.6538C114.059 34.8957 114.021 35.1382 114.174 35.3192L115.044 36.5323C115.271 36.835 115.65 37.2009 115.99 37.0193L116.296 36.835C116.674 36.5923 116.749 36.9558 116.522 37.261L113.036 42.0577ZM130.277 46.2467L126.108 51.6486C125.995 51.8295 125.918 51.7721 125.845 51.7086C123.645 49.3407 121.904 48.2494 120.009 48.2494C118.682 48.2494 117.357 48.672 115.65 49.4016C115.499 49.4651 115.461 49.2807 115.537 49.099C117.317 44.7891 119.516 43.4553 121.563 43.4553C124.593 43.4553 127.435 46.4283 128.572 47.6407L128.685 47.5198C128.987 46.4283 129.103 45.3936 129.103 44.4232C129.103 41.329 127.511 38.8402 125.541 37.261L121.485 42.0577C121.296 42.2395 121.259 42.2395 121.146 42.1186L118.417 38.1715C118.038 37.6237 118.038 37.6237 118.038 36.7741V19.7158C118.038 19.4141 118.038 19.3532 117.849 19.108L117.317 18.3793C116.939 17.8349 116.789 17.9558 116.296 18.3193L115.537 18.8662C115.424 18.9271 115.311 18.6854 115.499 18.3793L119.516 12.9781C119.668 12.7356 119.668 12.7965 119.78 12.9172L122.358 16.6827C122.659 17.1671 122.812 17.4723 122.812 18.2619V34.8321C122.812 35.1382 122.851 35.4401 122.963 35.6217L123.874 36.9558C124.137 37.3819 124.63 37.2009 124.934 36.9558L125.541 36.5323V19.6558C125.541 19.3532 125.541 19.3532 125.352 19.108L124.819 18.3793C124.441 17.8349 124.326 17.8958 123.796 18.1375L123.494 18.2619C123.381 18.3193 123.267 18.0766 123.456 17.7749L127.019 12.9781C127.169 12.7356 127.169 12.7965 127.283 12.9172L129.86 16.6827C130.163 17.1671 130.314 17.4723 130.314 18.2619V34.2279C131.906 36.1088 132.589 37.9897 132.589 39.8716C132.589 41.9977 131.944 44.0604 130.277 46.2467ZM156.194 9.64141C155.513 9.64141 154.944 9.51804 154.301 9.39711V27.3049C154.301 27.731 154.261 27.8519 154.11 28.0336L147.746 34.5304C148.692 35.2591 149.829 35.7462 151.005 35.7462C155.02 35.7462 159.566 32.2225 161.687 23.4213C161.803 22.9342 162.069 22.8133 162.069 23.6629V24.2709C162.069 33.9218 157.484 42.6021 150.701 42.6021C143.312 42.6021 138.877 33.6775 138.877 24.3916C138.877 17.4114 141.266 10.9154 146.684 8.18401C146.91 8.05976 146.95 8.24141 146.797 8.42569C144.409 11.3989 143.121 16.2566 143.121 21.1134C143.121 26.2736 144.409 31.3729 147.289 34.1069L148.881 32.2826C149.449 31.6781 149.527 31.0094 149.527 30.0389V7.81791C147.782 6.78664 146.229 6.17869 144.79 6.17869C142.819 6.17869 141.039 7.57274 139.297 10.9754C139.106 11.3389 138.991 11.3389 138.991 10.9754C139.219 4.11596 143.046 0.229736 146.836 0.229736C151.194 0.229736 155.209 3.63244 159.604 3.63244C161.159 3.63244 162.749 3.08206 164.076 1.92986C164.266 1.80894 164.302 2.05061 164.229 2.29246C162.864 7.75789 159.528 9.64141 156.194 9.64141ZM175.367 21.9639L168.661 28.7024V33.8618C168.661 34.3453 168.699 34.5304 168.963 34.7114L171.123 36.5323C171.502 36.835 172.148 37.1402 172.525 36.7741L174.534 34.8957C174.876 34.5905 175.14 34.7723 174.951 35.0175L169.456 42.1186C169.343 42.2996 169.38 42.2395 169.229 42.1186L164.342 37.9897C163.962 37.688 163.849 37.5637 163.849 36.7165V17.5323C163.849 17.2271 163.923 17.1062 164.151 16.9853L172.148 12.8563C172.261 12.7965 172.374 12.7356 172.452 12.9781L175.444 21.4768C175.521 21.6611 175.521 21.8429 175.367 21.9639ZM168.736 16.0748L168.661 16.1323V27.9153L171.314 24.3916C171.465 24.2109 171.465 24.0864 171.389 23.9081L168.736 16.0748ZM180.673 42.0577C180.52 42.2996 180.485 42.2395 180.371 42.1186L177.3 37.748C176.922 37.261 176.922 37.1402 176.922 36.3506V9.39711C176.922 9.09454 176.922 9.03101 176.731 8.78934L176.354 8.24141C175.975 7.69699 175.822 7.81791 175.331 8.18401L174.572 8.72844C174.459 8.78934 174.344 8.54661 174.534 8.24141L178.55 2.83951C178.701 2.59766 178.701 2.65856 178.816 2.77949L181.241 6.36296C181.545 6.84736 181.696 7.15011 181.696 7.93884V34.6538C181.696 34.8957 181.657 35.1382 181.808 35.3192L182.682 36.5323C182.908 36.835 183.288 37.2009 183.627 37.0193L183.931 36.835C184.311 36.5923 184.385 36.9558 184.158 37.261L180.673 42.0577ZM196.474 21.9639L189.768 28.7024V33.8618C189.768 34.3453 189.804 34.5304 190.071 34.7114L192.23 36.5323C192.608 36.835 193.253 37.1402 193.631 36.7741L195.64 34.8957C195.981 34.5905 196.245 34.7723 196.057 35.0175L190.561 42.1186C190.45 42.2996 190.488 42.2395 190.335 42.1186L185.447 37.9897C185.068 37.688 184.953 37.5637 184.953 36.7165V17.5323C184.953 17.2271 185.03 17.1062 185.257 16.9853L193.253 12.8563C193.366 12.7965 193.48 12.7356 193.555 12.9781L196.549 21.4768C196.625 21.6611 196.625 21.8429 196.474 21.9639ZM189.84 16.0748L189.768 16.1323V27.9153L192.421 24.3916C192.57 24.2109 192.57 24.0864 192.494 23.9081L189.84 16.0748ZM210.266 46.2467L206.098 51.6486C205.985 51.8295 205.909 51.7721 205.834 51.7086C203.634 49.3407 201.892 48.2494 199.998 48.2494C198.671 48.2494 197.344 48.672 195.64 49.4016C195.488 49.4651 195.451 49.2807 195.526 49.099C197.307 44.7891 199.505 43.4553 201.552 43.4553C204.584 43.4553 207.423 46.4283 208.561 47.6407L208.675 47.5198C208.977 46.4283 209.092 45.3936 209.092 44.4232C209.092 41.329 207.501 38.8402 205.53 37.261L201.437 42.1186C201.286 42.2996 201.172 42.2395 201.059 42.0577L198.482 38.2924C198.103 37.748 198.027 37.5061 198.027 36.8949V19.1714C198.027 18.8662 198.178 18.8063 198.254 18.7454L206.97 12.9781C207.198 12.7965 207.348 12.7965 207.423 12.9172L209.851 16.8035C210.153 17.2879 210.304 17.654 210.304 18.0766V34.2279C211.895 36.1088 212.578 37.9897 212.578 39.8716C212.578 41.9977 211.933 44.0604 210.266 46.2467ZM205.53 19.3532C205.53 19.108 205.492 18.9271 205.341 18.6854L203.938 16.4409C203.863 16.3166 203.825 16.38 203.71 16.4409L202.8 17.1062V34.5304C202.8 35.501 202.955 35.6217 203.559 36.5323C203.9 37.0193 204.087 37.2009 204.431 37.2009C204.735 37.2009 205.226 36.835 205.53 36.5323V19.3532ZM222.618 20.6872C222.429 20.9324 222.24 21.0533 222.052 21.0533C221.861 21.0533 221.67 20.9324 221.483 20.6872L219.171 17.5323L218.944 17.8349V34.7114C218.944 35.0775 218.944 35.1382 219.095 35.3192L219.701 36.1697C220.345 37.0193 220.496 37.1402 221.179 36.7165L221.634 36.4113C221.937 36.2297 222.012 36.4714 221.823 36.7741L217.919 42.0577C217.77 42.2996 217.731 42.2395 217.617 42.1186L214.623 37.8089C214.283 37.3219 214.168 37.1402 214.168 36.4714V19.1714L213.26 17.654C213.183 17.5323 213.147 17.5323 213.032 17.654L211.895 18.6854C211.555 18.9871 211.44 18.5636 211.669 18.2619L215.571 12.9781C215.722 12.7965 215.799 12.7965 215.875 12.9172L218.527 17.1062L221.141 12.9781C221.293 12.7965 221.406 12.7356 221.557 12.9781L223.566 15.954C223.945 16.4983 224.171 16.8035 224.4 16.8035C224.551 16.8035 224.742 16.6827 224.97 16.4409L225.498 15.8905C225.84 15.5279 225.991 16.0748 225.802 16.38L222.618 20.6872ZM236.601 42.0577C236.45 42.2996 236.41 42.2395 236.297 42.1186L232.848 37.261L228.757 42.1186C228.606 42.2996 228.568 42.2395 228.415 42.0577L225.802 38.2924C225.386 37.748 225.348 37.6237 225.348 36.8949V19.1714C225.348 18.8662 225.498 18.8063 225.574 18.7454L234.367 12.9172C234.517 12.7965 234.668 12.7965 234.819 13.0382L237.169 16.8035C237.511 17.3479 237.624 17.654 237.624 18.0167V35.1382L238.305 36.1088C239.14 37.261 239.255 37.2009 239.632 36.8949L240.163 36.4714C240.503 36.1697 240.769 36.4113 240.465 36.835L236.601 42.0577ZM232.848 19.4741C232.848 19.108 232.812 18.9271 232.623 18.6245L231.258 16.4409C231.183 16.3166 231.183 16.38 231.067 16.4409L230.122 17.1062V34.6538C230.122 35.2591 230.197 35.5619 230.462 35.9271L230.954 36.6532C231.294 37.1402 231.713 37.3819 232.206 37.0193L232.848 36.5323V19.4741ZM254.448 37.6237L251.001 41.8769C250.62 42.3605 250.544 42.2395 250.089 41.816L246.491 38.2924V45.3936L247.512 46.7944C247.627 46.9119 247.627 47.0363 247.512 47.2179L244.52 51.6486C244.444 51.7086 244.369 51.8295 244.216 51.6486L240.882 47.3389C240.769 47.2179 240.809 47.0963 240.882 46.9119L241.717 45.3936V19.2932L240.882 17.654C240.845 17.5897 240.809 17.5897 240.731 17.654L239.593 18.5636C239.33 18.8063 239.14 18.5036 239.366 18.201L243.231 12.9781C243.344 12.7965 243.497 12.7965 243.572 12.9172L246.376 17.3479L251.454 12.9781C251.607 12.8563 251.72 12.9172 251.756 12.9781L254.297 16.7436C254.485 17.0453 254.714 17.5323 254.714 18.0766V36.6532C254.714 37.0793 254.714 37.3219 254.448 37.6237ZM249.938 19.6558C249.938 19.2932 249.862 18.9871 249.712 18.7454L248.65 17.1062C248.575 16.9853 248.5 16.9853 248.384 17.0453L246.491 18.201V37.4428L247.552 37.9897C248.422 38.4133 248.801 38.3533 249.181 37.8089L249.56 37.261C249.902 36.7741 249.938 36.2297 249.938 35.2591V19.6558ZM269.422 42.0577C269.269 42.2996 269.269 42.2395 269.156 42.1186L266.124 37.8089C265.822 37.3819 265.671 37.0193 265.671 36.2297V19.5951C265.671 19.4141 265.671 19.2298 265.518 19.048L264.495 17.5897C264.381 17.4723 264.23 17.4114 264.08 17.5323L262.145 18.9871V34.6538C262.145 34.8957 262.107 35.1382 262.26 35.3192L263.13 36.5323C263.358 36.835 263.736 37.2009 264.08 37.0193L264.381 36.835C264.761 36.5923 264.835 36.9558 264.608 37.261L261.123 42.0577C260.972 42.2996 260.932 42.2395 260.819 42.1186L257.75 37.748C257.372 37.261 257.372 37.1402 257.372 36.3506V9.39711C257.372 9.09454 257.372 9.03101 257.181 8.78934L256.802 8.24141C256.422 7.69699 256.272 7.81791 255.781 8.18401L255.022 8.72844C254.909 8.78934 254.793 8.54661 254.984 8.24141L258.999 2.83951C259.152 2.59766 259.152 2.65856 259.266 2.77949L261.691 6.36296C261.995 6.84736 262.145 7.15011 262.145 7.93884V18.0766L267.185 12.9781C267.338 12.8563 267.487 12.8563 267.602 13.0382L270.065 16.6827C270.405 17.1671 270.481 17.5323 270.481 18.1375V34.7723C270.481 35.0775 270.481 35.1382 270.67 35.3801L271.619 36.6532C271.997 37.2009 272.148 37.0793 272.64 36.7165L273.399 36.1697C273.514 36.1088 273.626 36.3506 273.437 36.6532L269.422 42.0577Z" fill="black"/>
</svg>
