<svg width="284" height="70" viewBox="0 0 284 70" fill="none" xmlns="http://www.w3.org/2000/svg">
<path d="M-11.0047 88.8706C-11.0047 52.8992 -11.0047 16.947 -11.0047 -19.0437C91.2638 -19.0437 193.553 -19.0437 295.862 -19.0437C295.862 16.9085 295.862 52.8992 295.862 88.8706C193.573 88.8706 91.2842 88.8706 -11.0047 88.8706ZM161.253 0.346247C161.09 0.346247 160.947 0.327011 160.824 0.346247C154.026 1.51965 147.247 2.69305 140.448 3.90492C140.183 3.94339 139.856 4.32811 139.815 4.59742C139.611 5.69387 139.836 5.90547 141.061 6.04012C144.001 6.36713 145.553 7.579 146.165 10.3298C146.512 11.8879 146.737 13.4845 146.778 15.0618C146.92 20.044 147.043 25.0453 147.002 30.0275C146.92 42.0885 146.778 54.1495 146.594 66.2105C146.573 67.1531 146.859 67.557 147.86 67.7109C151.31 68.2111 154.72 68.8459 158.191 69.2691C162.744 69.8269 167.337 69.9038 171.87 68.9997C179.343 67.5186 185.161 63.8252 188.857 57.4196C190.899 53.861 191.899 50.0138 192.267 45.9934C192.695 41.3768 192.348 36.8563 190.551 32.5089C188.306 27.0459 184.61 22.7755 178.567 20.8519C172.993 19.0822 167.521 19.8901 162.294 22.2754C161.988 22.41 161.641 22.5254 161.294 22.6601C161.253 15.1965 161.253 7.80984 161.253 0.346247ZM57.6779 1.51965C56.8612 1.51965 56.3916 1.51965 55.9221 1.51965C38.0368 1.51965 20.1515 1.51965 2.26628 1.51965C-2.86102e-06 1.53888 0.326669 1.21187 0.285835 3.44325C0.285835 3.53943 0.245001 3.67409 0.306252 3.73179C0.490005 3.94339 0.694174 4.25117 0.939178 4.28964C1.63335 4.42429 2.34795 4.44353 3.06254 4.50124C5.69633 4.73207 7.71761 5.84776 8.75887 8.21379C9.1468 9.09865 9.53472 10.022 9.6368 10.9453C10.0451 15.2927 10.5964 19.6592 10.6168 24.0258C10.6577 34.1055 10.4331 44.1852 10.2493 54.2457C10.2085 56.7271 9.86139 59.2086 8.86096 61.5554C8.02386 63.5175 6.59468 64.8447 4.26714 65.191C3.30755 65.3257 2.34795 65.518 1.36793 65.7104C0.265418 65.922 0.204167 66.1143 0.285835 67.634C0.347086 68.5766 1.04126 68.288 1.55169 68.288C8.82012 68.3072 16.109 68.288 23.3774 68.288C27.6241 68.288 31.8709 68.288 36.138 68.288C36.628 68.288 37.1997 68.288 37.0568 67.6147C36.9139 66.9992 37.6489 66.0566 36.383 65.8258C35.3622 65.6334 34.3209 65.4026 33.2796 65.3064C30.4621 65.0756 28.645 63.6714 27.7262 61.1899C26.7666 58.593 26.5216 55.9 26.44 53.1877C26.2766 48.0517 26.0929 42.8964 25.9091 37.7604C25.8683 36.9525 26.195 36.7024 27.0321 36.7409C29.4617 36.8948 31.9117 37.0102 34.3617 37.1064C36.2605 37.1833 37.8326 37.9143 39.0576 39.2608C40.7114 41.1075 41.3852 43.3388 41.9364 45.6279C41.9977 45.8972 42.3039 46.2627 42.5489 46.3012C43.2635 46.3974 44.019 46.3397 44.7744 46.3397C44.7744 38.7607 44.7744 31.3355 44.7744 23.8142C44.1211 23.8142 43.5494 23.8527 42.9777 23.8142C42.2835 23.7565 42.0589 23.9874 41.8548 24.6606C41.3443 26.3726 40.7727 28.1039 39.9152 29.662C38.7922 31.7203 36.8934 32.8937 34.3617 33.0283C31.9117 33.163 29.4821 33.2207 27.0321 33.3746C26.1745 33.4323 25.8683 33.1822 25.8887 32.3743C25.9704 30.3545 25.9908 28.3539 26.0316 26.3342C26.1337 21.4482 26.2154 16.543 26.3175 11.6571C26.3583 10.1566 26.4604 8.65622 26.5012 7.15581C26.5216 6.46331 26.7258 6.15554 27.5833 6.15554C31.4217 6.21325 35.2601 6.15554 39.1189 6.21325C43.2635 6.27095 46.6323 7.92525 49.307 10.8876C51.4712 13.2921 52.8187 16.1006 53.9824 19.0052C54.8195 21.0827 54.7991 21.0635 57.0654 20.4479C57.7392 20.2556 57.9637 19.967 57.9433 19.313C57.8412 15.158 57.78 11.003 57.7188 6.84804C57.6575 5.13603 57.6779 3.40478 57.6779 1.51965ZM50.8382 45.6472C50.7974 48.321 51.3487 52.0143 52.7166 55.5537C55.1462 61.7862 59.5359 66.2298 66.2939 68.3842C70.3364 69.673 74.5219 69.8846 78.7482 69.4229C86.7721 68.5381 93.0401 64.9794 96.8989 58.2468C101.779 49.6867 101.717 40.7804 97.9402 31.9126C95.5718 26.3726 91.223 22.6216 85.2 20.6595C80.9941 19.2938 76.6248 19.1014 72.2352 19.6208C65.3751 20.4287 59.8217 23.3526 55.7996 28.681C52.2266 33.413 50.8178 38.7991 50.8382 45.6472ZM239.961 59.3625C238.858 59.978 237.796 60.6705 236.653 61.2091C233.652 62.6134 230.446 62.9019 227.139 62.6518C222.463 62.2671 218.604 60.4782 215.766 56.9195C212.663 53.0146 211.785 48.4556 211.581 43.7428C211.52 42.2039 211.561 42.1847 213.153 42.1847C222.361 42.1847 231.59 42.1654 240.798 42.2039C241.676 42.2039 242.023 42.0116 241.941 41.1459C241.676 38.0874 241.369 35.0481 240.328 32.1242C238.388 26.6612 234.918 22.5062 229.017 20.4672C225.464 19.2553 221.769 19.1976 218.074 19.6208C210.744 20.4672 205.027 23.795 201.148 29.7005C196.717 36.4523 195.799 43.8005 197.555 51.4565C199.167 58.4584 203.23 63.8445 210.091 67.1338C215.481 69.7307 221.238 70.2501 227.118 69.1152C232.325 68.1149 236.776 65.7873 240.267 61.9786C241.451 60.6705 241.41 60.5936 239.961 59.3625ZM278.855 34.8173C280.937 34.3364 280.958 34.3364 280.917 32.4512C280.856 29.258 280.754 26.0649 280.733 22.8524C280.733 22.083 280.468 21.7175 279.692 21.4674C276.65 20.4287 273.506 19.7939 270.28 19.5438C265.951 19.2168 261.684 19.2361 257.499 20.5441C251.088 22.5447 246.719 27.6037 246.29 33.7016C245.963 38.3952 247.474 42.3963 251.639 45.2817C254.13 47.0129 257.029 47.9555 259.826 49.0712C262.256 50.033 264.685 51.0717 266.891 52.399C269.545 53.9956 270.463 56.4771 269.79 59.4202C269.136 62.2286 267.381 64.1715 264.44 64.9025C259.887 66.0182 255.988 64.7486 252.823 61.5361C250.455 59.1316 249.046 56.1885 247.78 53.1685C247.637 52.8415 247.127 52.3221 246.964 52.3798C246.269 52.5914 245.208 52.399 245.249 53.6686C245.391 57.7851 245.432 61.9209 245.473 66.0374C245.473 66.6914 245.779 66.98 246.371 67.1146C249.332 67.7879 252.252 68.5766 255.253 69.0767C259.887 69.8269 264.563 69.9615 269.218 69.0382C273.322 68.2111 276.977 66.576 279.794 63.4982C282.673 60.3435 283.694 56.631 283.53 52.5721C283.408 49.5906 282.448 46.936 280.223 44.7623C277.814 42.3963 274.771 41.0113 271.607 39.7802C268.442 38.5298 265.257 37.3372 262.46 35.4328C259.928 33.7016 258.765 31.4702 259.234 28.4694C259.663 25.7956 261.664 23.5449 264.461 22.9486C266.788 22.4485 268.993 22.8717 271.056 23.8912C274.077 25.3916 275.731 27.9885 277.099 30.7969C277.773 32.0857 278.283 33.4323 278.855 34.8173ZM122.502 19.4284C122.257 19.4477 122.073 19.4669 121.93 19.4861C115.335 20.7365 108.741 22.0061 102.146 23.2564C101.37 23.4103 100.962 23.6219 100.982 24.4683C101.003 25.3531 101.513 25.3916 102.228 25.4685C105.964 25.8725 107.148 26.8535 107.618 30.4122C107.985 33.2014 108.169 36.0099 108.189 38.8184C108.23 44.6084 108.149 50.3985 107.985 56.1885C107.924 58.3045 107.638 60.4589 107.169 62.5172C106.781 64.2292 105.454 65.2872 103.514 65.5373C102.881 65.6142 102.248 65.7488 101.615 65.8643C101.431 65.9027 101.125 65.9989 101.105 66.0951C101.044 66.7299 100.962 67.3839 101.125 67.9802C101.166 68.1726 101.921 68.288 102.35 68.288C111.252 68.3072 120.174 68.3072 129.076 68.288C131.444 68.288 131.159 68.7497 131.138 66.2105C131.138 66.1336 131.056 66.0374 130.995 65.9027C130.076 65.8258 129.137 65.7104 128.178 65.6719C125.033 65.5373 123.4 64.3446 123.012 61.4207C122.583 58.0737 122.277 54.6881 122.216 51.3026C122.134 45.8972 122.359 40.4919 122.298 35.0866C122.277 33.4707 123.053 32.6628 124.421 32.1242C128.668 30.4122 132.751 30.9701 136.712 32.9706C137.018 33.1245 137.345 33.2784 137.712 33.4515C139.325 29.4312 140.836 25.507 142.449 21.6213C142.817 20.7172 142.653 20.3133 141.714 19.9863C137.345 18.4089 133.323 19.1399 129.566 21.5636C126.667 23.4488 124.707 26.0841 123.135 28.9887C122.971 29.2965 122.767 29.5851 122.461 30.0467C122.502 26.4111 122.502 22.9679 122.502 19.4284Z" fill="white"/>
<path d="M161.253 0.346339C161.253 7.80993 161.253 15.1966 161.253 22.6986C161.6 22.564 161.927 22.4486 162.254 22.3139C167.501 19.9286 172.952 19.1207 178.526 20.8904C184.569 22.8141 188.265 27.0845 190.511 32.5475C192.307 36.8948 192.634 41.4153 192.226 46.032C191.858 50.0523 190.858 53.8995 188.816 57.4582C185.121 63.8638 179.302 67.5571 171.829 69.0383C167.297 69.9231 162.723 69.8654 158.15 69.3076C154.699 68.8844 151.269 68.2496 147.819 67.7495C146.818 67.6148 146.533 67.1916 146.553 66.2491C146.716 54.1881 146.88 42.1271 146.961 30.066C147.002 25.0839 146.88 20.0825 146.737 15.1004C146.696 13.523 146.471 11.9072 146.124 10.3683C145.512 7.61757 143.98 6.4057 141.02 6.07868C139.795 5.94403 139.591 5.73243 139.775 4.63598C139.815 4.36667 140.162 4.00119 140.407 3.94348C147.186 2.73161 153.985 1.55821 160.784 0.384812C160.947 0.327103 161.069 0.346339 161.253 0.346339ZM161.131 40.819C161.11 44.7239 161.09 48.6096 161.131 52.5145C161.172 56.4194 161.274 60.3051 161.335 64.21C161.355 65.9413 161.355 65.9798 163.193 66.1914C166.153 66.5376 168.787 65.9028 170.89 63.8061C172.523 62.171 173.667 60.2667 174.524 58.2084C176.831 52.6684 177.423 46.8784 177.097 40.9921C176.913 37.6451 176.26 34.3557 174.728 31.2587C173.789 29.3543 172.585 27.6231 170.727 26.392C167.93 24.5453 164.928 24.7569 161.866 25.6995C161.253 25.8918 161.09 26.1611 161.09 26.719C161.151 31.4318 161.131 36.1254 161.131 40.819Z" fill="black"/>
<path d="M57.6779 1.51967C57.6779 3.4048 57.6575 5.11681 57.6779 6.84805C57.7392 11.003 57.8004 15.158 57.9025 19.313C57.9229 19.967 57.6983 20.2748 57.0246 20.4479C54.7583 21.0827 54.7787 21.102 53.9416 19.0052C52.7779 16.1006 51.4303 13.2729 49.2661 10.8876C46.5915 7.92527 43.2431 6.27097 39.0781 6.21326C35.2397 6.15556 31.4013 6.21326 27.5425 6.15556C26.685 6.13632 26.4808 6.46333 26.4604 7.15583C26.4196 8.65624 26.3175 10.1567 26.2766 11.6571C26.1745 16.543 26.0929 21.4482 25.9908 26.3342C25.95 28.354 25.9295 30.3545 25.8479 32.3743C25.8275 33.1822 26.1133 33.4323 26.9912 33.3746C29.4208 33.2207 31.8709 33.1437 34.3209 33.0283C36.8526 32.8937 38.7514 31.701 39.8743 29.662C40.7318 28.0847 41.2831 26.3534 41.8139 24.6606C42.0181 23.9874 42.2427 23.7565 42.9369 23.8143C43.5086 23.8527 44.0802 23.8143 44.7336 23.8143C44.7336 31.3355 44.7336 38.7799 44.7336 46.3397C43.9781 46.3397 43.2431 46.3974 42.5081 46.3012C42.2631 46.282 41.9569 45.8972 41.8956 45.6279C41.3444 43.3388 40.691 41.1075 39.0168 39.2608C37.7918 37.895 36.2197 37.1833 34.3209 37.1064C31.8709 37.0102 29.4413 36.8948 26.9912 36.7409C26.1541 36.6832 25.8275 36.9332 25.8683 37.7604C26.0725 42.8964 26.2562 48.0517 26.3991 53.1877C26.4808 55.9 26.7258 58.593 27.6854 61.1899C28.6042 63.6713 30.4213 65.0563 33.2388 65.3064C34.2801 65.4026 35.3009 65.6334 36.3422 65.8258C37.608 66.0566 36.873 66.9992 37.016 67.6147C37.1589 68.288 36.5872 68.288 36.0972 68.288C31.8505 68.288 27.6037 68.288 23.3366 68.288C16.0682 68.288 8.77929 68.288 1.51086 68.288C1.02085 68.288 0.306255 68.5573 0.245005 67.634C0.163337 66.1143 0.224588 65.922 1.3271 65.7104C2.2867 65.5372 3.2463 65.3449 4.22631 65.191C6.55385 64.8447 7.96262 63.5175 8.82013 61.5554C9.82056 59.2086 10.1676 56.7271 10.2085 54.2457C10.3922 44.166 10.6168 34.0863 10.576 24.0258C10.5556 19.6593 10.0043 15.3119 9.59597 10.9453C9.51431 10.022 9.10597 9.07944 8.71804 8.21381C7.67678 5.84778 5.6555 4.75132 3.02171 4.50125C2.30712 4.44355 1.59252 4.40507 0.898347 4.27042C0.653344 4.23195 0.449174 3.92417 0.265421 3.71258C0.204171 3.65487 0.245005 3.52022 0.245005 3.42404C0.326672 1.21189 9.23872e-07 1.5389 2.26628 1.51967C20.1515 1.51967 38.0368 1.51967 55.9221 1.51967C56.3917 1.51967 56.8612 1.51967 57.6779 1.51967Z" fill="black"/>
<path d="M50.8382 45.6471C50.8178 38.7991 52.2266 33.413 55.7996 28.6617C59.8217 23.3333 65.3751 20.3902 72.2352 19.6015C76.6249 19.0821 80.9737 19.2745 85.2 20.6402C91.223 22.6023 95.5718 26.3533 97.9402 31.8933C101.717 40.7804 101.799 49.6674 96.8989 58.2275C93.0605 64.9601 86.7721 68.5188 78.7482 69.4036C74.5219 69.8653 70.3364 69.6537 66.2939 68.3649C59.5154 66.2104 55.1462 61.7669 52.7166 55.5344C51.3487 52.0142 50.7974 48.3209 50.8382 45.6471ZM85.445 43.4927C85.2408 41.5883 85.0162 38.145 84.5058 34.7403C83.9954 31.4509 82.9949 28.2577 80.9124 25.4877C78.3195 22.0445 73.9911 21.3904 70.8673 24.045C69.336 25.3531 68.5193 27.0843 67.9068 28.8925C66.8247 32.0472 66.4368 35.2981 66.2326 38.5875C65.8855 44.2236 65.8855 49.8213 67.0901 55.3806C67.7231 58.3621 68.6622 61.2475 70.5814 63.7675C73.2765 67.2877 78.0336 67.5377 81.0758 64.2868C82.4233 62.8441 83.1991 61.0937 83.73 59.2855C85.1183 54.6111 85.2612 49.8213 85.445 43.4927Z" fill="black"/>
<path d="M239.961 59.3625C241.431 60.5744 241.451 60.6705 240.267 61.9594C236.776 65.7873 232.304 68.0957 227.118 69.0959C221.238 70.2309 215.481 69.7115 210.091 67.1146C203.23 63.806 199.147 58.4199 197.555 51.4372C195.799 43.7813 196.717 36.4139 201.148 29.6813C205.027 23.7758 210.744 20.448 218.074 19.6016C221.789 19.1784 225.465 19.2361 229.017 20.448C234.938 22.4677 238.388 26.642 240.328 32.105C241.369 35.0481 241.676 38.0874 241.941 41.1267C242.023 42.0116 241.655 42.1847 240.798 42.1847C231.59 42.1655 222.361 42.1655 213.153 42.1655C211.54 42.1655 211.499 42.1655 211.581 43.7236C211.785 48.4556 212.643 52.9954 215.767 56.9003C218.604 60.4589 222.463 62.2671 227.139 62.6326C230.446 62.9019 233.652 62.6134 236.653 61.1899C237.796 60.6705 238.858 59.978 239.961 59.3625ZM226.914 38.4337C226.955 38.2028 227.016 38.0489 226.996 37.8951C226.853 35.6252 226.812 33.3553 226.506 31.124C226.2 28.8156 225.628 26.5458 224.219 24.5452C222.627 22.2754 219.952 21.7945 217.604 23.3526C215.991 24.4106 215.011 25.9495 214.215 27.5845C212.704 30.7392 211.969 34.0478 211.724 37.4911C211.622 38.8569 211.601 38.8569 213.051 38.8376C216.828 38.7607 220.585 38.703 224.362 38.6068C225.22 38.5491 226.057 38.4721 226.914 38.4337Z" fill="black"/>
<path d="M278.855 34.8171C278.263 33.4321 277.752 32.0856 277.12 30.7968C275.752 28.0076 274.098 25.4107 271.076 23.8911C269.014 22.8523 266.809 22.4484 264.481 22.9485C261.705 23.5448 259.683 25.7762 259.255 28.4692C258.765 31.4701 259.949 33.7014 262.481 35.4327C265.278 37.3371 268.463 38.5489 271.627 39.78C274.772 41.0111 277.814 42.3961 280.243 44.7622C282.469 46.9551 283.428 49.6097 283.551 52.572C283.735 56.6501 282.693 60.3626 279.815 63.4981C277.017 66.5566 273.363 68.2109 269.239 69.0381C264.604 69.9614 259.908 69.8267 255.273 69.0765C252.292 68.5956 249.352 67.7877 246.392 67.1145C245.8 66.9798 245.514 66.6913 245.494 66.0372C245.453 61.9207 245.392 57.785 245.269 53.6685C245.228 52.3797 246.269 52.5912 246.984 52.3796C247.147 52.3219 247.658 52.8413 247.801 53.1683C249.046 56.1884 250.455 59.1315 252.844 61.536C256.008 64.7484 259.908 66.018 264.461 64.9023C267.401 64.1906 269.177 62.2285 269.81 59.42C270.484 56.4769 269.565 53.9955 266.911 52.3989C264.706 51.0716 262.256 50.0329 259.847 49.0711C257.029 47.9554 254.15 47.0128 251.66 45.2815C247.494 42.3961 245.984 38.4143 246.31 33.7014C246.739 27.5844 251.129 22.5445 257.519 20.544C261.705 19.2359 265.972 19.2167 270.3 19.5437C273.526 19.7938 276.65 20.4286 279.712 21.4673C280.468 21.7174 280.733 22.0829 280.754 22.8523C280.774 26.0455 280.876 29.2387 280.937 32.4511C280.958 34.3362 280.937 34.3362 278.855 34.8171Z" fill="black"/>
<path d="M122.502 19.4283C122.502 22.9677 122.502 26.411 122.502 30.0851C122.788 29.6234 122.992 29.3349 123.176 29.0271C124.748 26.1225 126.708 23.4871 129.607 21.602C133.364 19.159 137.386 18.4473 141.755 20.0246C142.674 20.3516 142.858 20.7748 142.49 21.6597C140.877 25.5454 139.346 29.4503 137.753 33.4899C137.386 33.3167 137.059 33.1629 136.753 33.009C132.792 31.0084 128.709 30.4506 124.462 32.1626C123.094 32.7204 122.318 33.5091 122.338 35.1249C122.4 40.5303 122.175 45.9356 122.257 51.3409C122.318 54.7072 122.604 58.0928 123.053 61.4591C123.421 64.383 125.074 65.5756 128.219 65.7103C129.158 65.7487 130.097 65.8642 131.036 65.9411C131.097 66.0757 131.179 66.1719 131.179 66.2489C131.199 68.788 131.485 68.3071 129.117 68.3264C120.215 68.3456 111.293 68.3456 102.391 68.3264C101.962 68.3264 101.207 68.211 101.166 68.0186C101.003 67.4223 101.105 66.7682 101.146 66.1335C101.146 66.0373 101.472 65.9411 101.656 65.9026C102.289 65.768 102.922 65.6526 103.555 65.5756C105.494 65.3255 106.822 64.2676 107.209 62.5556C107.679 60.4781 107.965 58.3429 108.026 56.2269C108.19 50.4368 108.271 44.6468 108.23 38.8567C108.21 36.0483 108.026 33.2398 107.659 30.4506C107.189 26.8919 106.005 25.9109 102.269 25.5069C101.554 25.43 101.064 25.3915 101.023 24.5066C101.003 23.6602 101.411 23.4487 102.187 23.2948C108.782 22.0637 115.376 20.7941 121.971 19.5245C122.073 19.4476 122.257 19.4476 122.502 19.4283Z" fill="black"/>
<path d="M161.131 40.8189C161.131 36.1253 161.131 31.4124 161.11 26.7188C161.11 26.161 161.274 25.8725 161.886 25.6993C164.949 24.776 167.95 24.5452 170.747 26.3918C172.605 27.6229 173.81 29.3542 174.749 31.2585C176.28 34.3363 176.933 37.6449 177.117 40.992C177.444 46.8782 176.852 52.6683 174.545 58.2083C173.687 60.2665 172.544 62.1901 170.91 63.806C168.787 65.9027 166.174 66.5567 163.213 66.1912C161.376 65.9796 161.376 65.9412 161.355 64.2099C161.294 60.305 161.172 56.4193 161.151 52.5144C161.11 48.6287 161.131 44.7238 161.131 40.8189Z" fill="white"/>
<path d="M85.445 43.4927C85.2612 49.8213 85.1183 54.6111 83.73 59.2662C83.1787 61.0937 82.4233 62.8249 81.0757 64.2676C78.0336 67.4993 73.2765 67.2684 70.5814 63.7482C68.6622 61.2283 67.7231 58.3429 67.0901 55.3613C65.8855 49.8021 65.8855 44.2044 66.2326 38.5682C66.4368 35.2789 66.8247 32.028 67.9068 28.8733C68.5193 27.0651 69.336 25.3338 70.8673 24.0258C73.9707 21.3904 78.3195 22.0252 80.9124 25.4685C82.9949 28.2385 84.0158 31.4317 84.5058 34.721C85.0162 38.145 85.2408 41.5883 85.445 43.4927Z" fill="white"/>
<path d="M226.914 38.4335C226.057 38.4912 225.22 38.5682 224.383 38.5874C220.605 38.6644 216.849 38.7413 213.071 38.8182C211.622 38.8375 211.642 38.8375 211.744 37.4717C211.989 34.0477 212.724 30.7199 214.235 27.5652C215.032 25.9301 215.991 24.3912 217.624 23.3332C219.993 21.7751 222.647 22.256 224.24 24.5259C225.648 26.5264 226.22 28.7963 226.526 31.1046C226.833 33.3552 226.873 35.6251 227.016 37.8757C226.996 38.0296 226.955 38.1835 226.914 38.4335Z" fill="white"/>
</svg>
