<svg width="72" height="68" viewBox="0 0 72 68" fill="none" xmlns="http://www.w3.org/2000/svg">
<path d="M-29.5329 51.1319L-29.6469 3.16986H-36.5012V2.45142H-11.2485V3.16986H-18.0988L-17.9467 55.7577C-16.4302 61.7795 -13.734 66.3486 -4.52262 66.4167C4.68882 66.4847 10.951 61.3567 13.2783 54.3488V3.16986H5.43719L5.43711 2.47258H69.6148L69.7483 25.4963H69.1315C67.9411 10.6307 61.764 5.01263 50.9608 3.37363C47.2434 2.80964 43.3435 3.22773 38.4133 3.19215V32.5765C42.7065 32.8845 47.2796 32.6325 50.3614 30.1746C53.1638 27.9396 53.956 22.7756 54.162 20.6777H54.7046V46.2624H54.1174C53.9478 46.2624 53.7223 39.842 50.3614 36.7959C46.9784 33.7299 42.6706 32.9761 38.4133 33.7066V65.0955C44.4268 65.0955 49.2201 65.5685 53.3828 64.5087C66.0365 61.2874 70.491 51.3746 70.4569 41.4324H71.1606V65.8386H20.8212V65.0955H26.513V3.16986H14.2154V54.3488C12.8216 59.2457 7.72721 67.3469 -5.32844 67.2916C-17.4672 67.2402 -29.5067 62.1585 -29.5329 51.1319Z" fill="black"/>
</svg>
