<svg width="69" height="12" viewBox="0 0 69 12" fill="none" xmlns="http://www.w3.org/2000/svg">
<path fill-rule="evenodd" clip-rule="evenodd" d="M142.74 6.72457L143.364 6.83991C143.285 6.6672 143.403 6.37794 143.403 6.37794C142.933 6.45474 142.817 6.59921 142.817 6.59921L142.153 6.61833L142.74 6.72457ZM168.336 7.97628C168.258 7.93774 168.14 7.90921 167.943 7.90921C167.75 7.90921 167.554 7.95686 167.554 8.02454C167.554 8.09223 167.75 8.13988 167.943 8.13988C168.177 8.13988 168.375 8.09223 168.375 8.02454C168.373 8.00572 168.336 7.99541 168.336 7.97628ZM168.32 7.52434C168.33 7.53254 168.336 7.54286 168.336 7.55257C168.332 7.60144 168.208 7.64484 168.022 7.66153V7.80358C168.24 7.80905 168.439 7.83666 168.571 7.87976C168.697 7.92134 168.765 7.97203 168.765 8.02424C168.765 8.12804 168.524 8.21181 168.175 8.23792C169.14 8.2194 169.744 8.19785 169.744 8.19785C168.804 8.14929 169.351 8.01483 169.351 8.01483C169.782 7.92772 170.602 7.86004 170.602 7.86004C169.625 7.8309 169.079 7.63877 168.841 7.52343H168.32V7.52434ZM167.829 8.24369C167.454 8.22851 167.164 8.13836 167.164 8.02454C167.164 7.91558 167.432 7.82786 167.788 7.80783V7.66639C167.57 7.65789 167.396 7.6157 167.361 7.56167L167.357 7.56259C166.968 7.59081 166.614 7.59081 166.614 7.59081C166.537 7.63907 166.693 7.6585 166.693 7.6585C167.513 7.80297 166.968 7.93774 166.968 7.93774C166.578 8.02454 166.382 8.02454 166.382 8.02454C165.991 8.05368 165.053 8.25613 165.053 8.25613C166.097 8.26402 167.054 8.25613 167.829 8.24369ZM157.12 7.35073C157.19 7.35073 157.259 7.34527 157.316 7.33525L158.095 7.41841C158.095 7.47578 158.252 7.52465 158.449 7.52465C158.57 7.52465 158.677 7.50522 158.74 7.4779L159.401 7.50188C159.444 7.55014 159.578 7.58262 159.737 7.58262C159.918 7.58262 160.1 7.54164 160.124 7.48246L160.677 7.41811C160.742 7.44209 160.839 7.45726 160.951 7.45726C161.144 7.45726 161.342 7.40901 161.342 7.35103L161.694 7.20747C162.359 7.21991 163.026 7.21688 163.687 7.19745C164.741 7.06208 165.602 6.98529 165.602 6.98529C165.287 7.04265 164.974 7.09152 164.778 7.14919C164.581 7.19715 164.399 7.24874 164.232 7.30307C163.945 7.35407 163.782 7.43784 163.801 7.52495C163.83 7.57989 163.91 7.6327 164.033 7.67883C164.23 7.7365 164.505 7.76594 164.505 7.76594L164.936 7.86216C164.583 7.92984 163.801 7.9772 163.801 7.9772C163.37 8.01665 162.786 7.94897 162.786 7.94897C161.418 7.87218 160.95 8.02576 160.95 8.02576C160.675 8.10255 160.167 8.11287 160.167 8.11287L160.401 8.19967C159.892 8.23822 159.621 8.18996 159.621 8.18996C159.581 8.02606 159.933 7.86246 159.933 7.86246C159.776 7.60265 157.586 7.6503 157.586 7.6503L157.041 7.52434L156.923 7.4952L155.673 7.20625C155.673 7.29306 155.517 7.41841 155.324 7.52465C155.166 7.61085 154.97 7.68824 154.97 7.68824L154.502 7.62997C154.591 7.5981 154.656 7.56228 154.696 7.52465C155.085 7.29306 155.359 6.96556 155.359 6.96556C155.593 6.96556 155.791 6.97558 155.945 6.98499C156.064 7.00411 156.142 7.01413 156.142 7.01413C156.234 7.02475 156.332 7.03507 156.439 7.04539L156.87 7.19624C156.83 7.21415 156.809 7.23418 156.809 7.25451C156.807 7.31218 156.923 7.35073 157.12 7.35073ZM161.483 7.20079L161.255 7.28061C161.191 7.2536 161.076 7.2366 160.95 7.23539C160.753 7.23539 160.597 7.28304 160.597 7.35073C160.597 7.35983 160.6 7.36924 160.61 7.37744L160.111 7.4348C160.058 7.38958 159.898 7.35012 159.737 7.35012C159.545 7.35012 159.387 7.40779 159.387 7.46546L158.792 7.44027C158.799 7.43298 158.801 7.42539 158.801 7.41811C158.801 7.36044 158.642 7.30186 158.449 7.30186C158.301 7.30186 158.18 7.33404 158.128 7.3744L157.438 7.29761C157.461 7.28395 157.472 7.26938 157.471 7.25451C157.471 7.20625 157.315 7.1586 157.118 7.1586C157.087 7.1583 157.056 7.15951 157.028 7.16255L156.843 7.0809H156.841C157.836 7.16103 159.07 7.21627 159.07 7.21627H159.93L160.205 7.11004C160.56 7.1589 161.019 7.18683 161.483 7.20079ZM156.852 5.55601C156.884 5.56573 156.913 5.57483 156.945 5.58303L156.896 5.60488C156.87 5.60063 156.839 5.5982 156.809 5.5976C156.652 5.5976 156.534 5.63614 156.534 5.67499L156.497 5.66528L156.182 5.57847L156.067 5.54964L155.363 5.36662C154.542 5.09709 153.292 5.36662 153.292 5.36662L153.098 5.32807C153.76 5.23155 153.177 5.1065 153.177 5.1065L154.465 4.2876L154.112 4.18167C154.74 3.86358 153.411 3.85418 153.411 3.85418C153.018 3.56523 152.315 3.70029 152.315 3.70029C152.082 3.42075 151.22 3.56523 151.22 3.56523C150.909 3.37279 150.166 3.48813 150.166 3.48813L150.202 3.03528L149.345 3.04469L148.405 3.03528L148.484 3.49754C147.548 3.3822 147.388 3.61318 147.388 3.61318C146.296 3.45899 146.296 3.75766 146.296 3.75766C145.396 3.68997 145.435 3.90213 145.435 3.90213C144.225 3.93097 144.381 4.19108 144.381 4.19108L145.317 4.98084C145.084 5.12532 142.31 5.96334 142.31 5.96334L141.136 5.87683L141.057 5.82888C141.331 5.86742 141.527 5.848 141.527 5.848C141.411 5.75148 141.565 5.55905 141.565 5.55905C141.918 5.18359 141.293 5.04853 141.293 5.04853C141.331 4.89434 140.901 4.71162 140.901 4.71162C141.487 4.5286 140.628 4.34557 140.628 4.34557L140.509 4.29701L140.471 3.90213C140.315 3.90213 140.236 3.85387 140.236 3.85387C140.002 3.68997 139.572 3.7962 139.572 3.7962C139.26 3.6232 138.751 3.75766 138.751 3.75766C138.32 3.61318 137.89 3.75766 137.89 3.75766L137.539 3.47812L136.367 3.59345L136.759 3.90183C135.898 3.85327 136.172 4.06543 136.172 4.06543C135.429 4.07514 135.781 4.23873 135.781 4.23873C135.078 4.25816 135.351 4.4509 135.351 4.4509L136.132 4.76868C135.506 4.94169 136.094 5.05763 136.094 5.05763C136.289 5.14444 136.525 5.14444 136.525 5.14444C136.172 5.40486 136.642 5.67439 136.642 5.67439C136.133 5.81886 135.39 5.9342 134.727 6.0207C133.75 6.13665 132.889 6.19432 132.889 6.19432C131.365 6.28143 128.357 6.52181 128.357 6.52181C127.301 6.58889 125.622 6.71425 125.622 6.71425C123.511 6.86874 122.964 6.70514 122.964 6.70514C122.456 6.62744 122.847 6.4253 122.847 6.4253C123.355 6.17489 124.411 6.11692 124.411 6.11692C125.154 6.23317 125.426 6.29994 125.426 6.29994C125.895 6.41619 126.716 6.40617 126.716 6.40617L126.756 6.36763C127.107 6.37764 127.342 6.3485 127.342 6.3485C127.107 6.29084 127.107 6.22315 127.107 6.22315C127.107 6.17519 126.833 6.0984 126.833 6.0984L132.265 6.04043C132.462 6.03163 132.617 6.03163 132.774 6.02131C134.648 5.93481 135.079 5.82888 135.079 5.82888C136.368 5.57787 135.821 5.16386 135.821 5.16386C135.117 4.75958 133.75 4.73985 133.75 4.73985C132.695 4.67247 131.914 4.71132 131.914 4.71132C131.328 4.72103 130.118 4.64393 130.118 4.64393C130.077 4.7013 130.585 4.88432 130.585 4.88432C130.231 4.89221 129.88 4.86459 129.609 4.80753C128.983 4.66306 127.967 4.73044 127.967 4.73044C128.124 4.80753 129.063 5.00057 129.063 5.00057C128.515 5.00998 127.032 4.85609 127.032 4.85609C127.305 5.17418 128.79 5.39545 128.79 5.39545C130.549 5.57847 132.072 5.38604 132.072 5.38604C132.814 5.27071 133.557 5.20272 133.557 5.20272C133.668 5.19027 133.788 5.1839 133.91 5.1839C134.292 5.1839 134.628 5.24733 134.729 5.33778C134.652 5.66528 133.674 5.67499 133.674 5.67499C130.86 5.81917 127.108 5.72295 127.108 5.72295C127.381 5.63614 127.421 5.41457 127.421 5.41457L127.108 5.434C125.468 5.39545 125.037 5.48226 125.037 5.48226C124.451 5.56906 124.177 5.75209 124.177 5.75209C123.435 5.82918 122.848 5.92509 122.417 6.02161C121.324 6.28234 121.207 6.57068 121.207 6.57068C121.128 6.91761 121.91 6.96617 121.91 6.96617C121.207 7.30247 122.261 7.42813 122.261 7.42813C122.73 7.34193 122.925 7.2451 122.925 7.2451C123.863 7.0724 126.599 6.92732 126.599 6.92732C126.051 7.03386 125.737 7.35103 125.737 7.35103C125.269 7.38958 124.487 7.3219 124.487 7.3219C124.058 7.31279 124.058 7.3996 124.058 7.3996L123.862 7.51463L123.589 7.72709C121.908 7.70767 122.143 7.94805 122.143 7.94805L121.908 8.59334C122.299 8.83403 122.924 8.79579 122.924 8.79579V8.55509H123.353C123.862 8.81491 124.644 8.87288 124.644 8.87288H124.879C125.151 8.85376 125.269 8.95058 125.269 8.95058L125.543 8.95939L125.581 8.79579L125.892 8.78668C126.09 8.80611 126.205 8.8829 126.205 8.8829H126.439C126.517 8.84405 126.557 8.73842 126.557 8.73842C126.87 8.68986 126.79 8.51715 126.79 8.51715C127.417 8.48802 128.081 8.5463 128.081 8.5463L128.043 8.68986C128.51 8.8829 129.098 8.91173 129.098 8.91173C129.489 8.94026 130.074 8.95938 130.779 8.9694C131.991 8.98852 133.514 8.97851 134.921 8.9694C136.448 8.95028 137.973 8.92144 139.494 8.88229C139.65 8.93996 139.728 8.93085 139.728 8.93085C140.391 8.98822 141.134 8.81461 141.134 8.81461L140.901 8.93085C141.408 8.92084 141.956 8.83403 141.956 8.83403C142.092 8.87986 142.284 8.91355 142.503 8.93085L142.621 8.90172L142.778 8.95908C143.089 8.92054 143.285 8.78638 143.285 8.78638C143.639 8.86317 144.146 8.84374 144.146 8.84374L144.304 8.90141L144.418 8.85285C144.651 8.89231 145.082 8.93996 145.082 8.93996C145.553 8.79548 145.358 8.58393 145.358 8.58393L145.475 8.63158L145.59 8.51625C145.823 8.57361 146.218 8.57361 146.218 8.57361C145.475 8.6504 145.903 8.78608 145.903 8.78608C145.995 8.82402 146.132 8.85406 146.296 8.87197C146.552 8.86438 146.791 8.90687 146.843 8.9691C147.429 9.03678 147.781 8.88199 147.781 8.88199L147.86 8.76665C147.742 8.69897 147.742 8.59303 147.742 8.59303L147.86 8.71809L148.053 8.74723L149.382 9.00704L150.517 8.77575C151.142 8.88199 152.002 8.88199 152.002 8.88199C152.314 8.88199 152.081 8.78608 152.081 8.78608C153.098 8.98822 154.62 8.93996 154.62 8.93996C154.853 8.89231 154.698 8.86317 154.698 8.86317C154.974 8.83403 155.442 8.93085 155.442 8.93085C155.831 8.99763 156.417 8.93996 156.417 8.93996C156.38 8.89231 156.184 8.88229 156.184 8.88229C156.459 8.88229 156.303 8.78638 156.303 8.78638C156.573 8.79549 156.81 8.87258 156.81 8.87258C157.043 8.94998 157.475 8.93085 157.475 8.93085L157.512 8.88229C157.786 8.93085 158.408 8.93996 158.408 8.93996C158.568 8.90141 158.449 8.84374 158.449 8.84374C161.263 9.0559 165.442 9.01645 165.442 9.01645C170.876 9.00765 171.619 8.74723 171.619 8.74723C171.815 8.68895 171.697 8.62218 171.697 8.62218V8.54538C171.971 8.50593 172.401 8.53567 172.401 8.53567L172.008 8.73781L171.894 8.8055C172.829 9.06531 174.236 8.77636 174.236 8.77636V8.68956C174.512 8.66103 174.744 8.58393 174.744 8.58393L175.372 8.62248C175.45 8.70959 175.215 8.8055 175.215 8.8055C176.191 8.87258 176.541 8.62248 176.541 8.62248L176.036 7.97659C175.254 7.75532 173.847 7.79356 173.847 7.79356L173.807 7.62966C173.728 7.5723 173.458 7.53375 173.221 7.52434L172.918 7.49763L172.635 7.52434C172.203 7.53345 171.577 7.53345 171.577 7.53345V7.52434L171.656 7.30217V7.05237L171.577 6.96526L172.401 6.9944C173.025 7.06117 174.472 7.06117 174.472 7.06117C174.94 7.10973 174.94 7.22507 174.94 7.22507L174.784 7.36044C176.112 7.3313 175.956 6.96526 175.956 6.96526C176.892 6.77222 176.658 6.25229 176.658 6.25229C176.54 6.12724 176.346 6.04984 176.226 6.0207L176.19 6.0119C176.19 5.6838 174.86 5.53932 174.86 5.53932C174.627 5.49106 174.353 5.49106 174.353 5.49106C174.041 5.47224 173.61 5.34658 173.61 5.34658C173.103 5.57756 173.531 5.75087 173.531 5.75087C172.749 5.71233 168.84 5.90506 168.84 5.90506C167.904 5.96303 166.341 5.83768 166.341 5.83768C165.362 5.70261 165.521 5.52961 165.521 5.52961C165.714 5.25007 166.653 5.28861 166.653 5.28861H166.927C167.749 5.25006 168.335 5.32716 168.335 5.32716C169.975 5.51959 172.905 5.32716 172.905 5.32716C174.311 5.19209 174.704 4.73954 174.704 4.73954C173.765 4.9517 172.868 4.91316 172.868 4.91316C172.669 4.92287 172.474 4.93592 172.281 4.9517C172.438 4.7878 173.217 4.71071 173.217 4.71071C172.203 4.60478 171.109 4.7878 171.109 4.7878C170.562 4.93228 169.349 4.98054 169.349 4.98054C170.246 4.89373 170.718 4.65304 170.718 4.65304C170.131 4.73954 169.077 4.72012 169.077 4.72012C167.474 4.64302 165.716 4.99936 165.716 4.99936C164.112 5.3654 164.894 5.77 164.894 5.77C165.091 5.88533 165.559 5.97245 166.066 6.0204C166.81 6.10751 167.589 6.12663 167.589 6.12663C169.271 6.17489 172.711 6.07837 172.711 6.07837C173.023 6.05895 173.375 6.05895 173.375 6.05895C172.748 6.17489 172.632 6.43501 172.632 6.43501C173.257 6.37764 173.725 6.37764 173.725 6.37764L173.688 6.41619C174.432 6.38705 175.053 6.41619 175.053 6.41619C175.446 6.42529 175.525 6.3394 175.525 6.3394C175.993 6.5121 175.053 6.70544 175.053 6.70544C174.508 6.8399 173.297 6.73367 173.297 6.73367C172.632 6.65688 170.911 6.62744 170.911 6.62744C170.599 6.53153 167.043 6.35822 167.043 6.35822C166.846 6.27111 166.496 6.30965 166.496 6.30965L166.182 6.29994C165.871 6.11692 165.168 6.22315 165.168 6.22315C164.66 6.20403 163.839 6.08869 163.368 6.0207C163.134 5.99217 163.017 5.96334 163.017 5.96334C164.893 5.45282 164.775 4.90405 164.775 4.90405C164.542 4.11399 161.924 3.98894 161.924 3.98894C161.534 3.75766 160.284 3.73853 160.284 3.73853L160.205 3.78679L160.321 3.85418C160.284 3.90244 160.516 3.98924 160.516 3.98924L160.009 4.01777L156.843 3.56523C156.064 3.51727 156.375 3.68056 156.375 3.68056L156.532 3.73853L159.268 4.26818C158.993 4.40294 158.057 4.57655 158.057 4.57655L157.704 4.59567L157.273 4.71132L157.314 4.86551C157.117 4.90405 156.686 4.90405 156.686 4.90405L156.649 5.00057C156.921 5.09709 157.703 5.09709 157.703 5.09709L158.327 5.25097C158.524 5.28011 158.68 5.24157 158.68 5.24157L159.226 5.08738L159.968 5.00087C160.165 5.02971 160.519 5.03942 160.519 5.03942C160.01 5.08799 159.465 5.2707 159.465 5.2707C159.034 5.24157 158.328 5.28011 158.328 5.28011L158.251 5.38604L158.228 5.41154L158.057 5.38604C157.783 5.1068 156.922 5.28011 156.922 5.28011C156.636 5.35599 156.607 5.47194 156.852 5.55601ZM156.869 5.75755C156.964 5.74693 157.04 5.71384 157.04 5.67439C157.04 5.66316 157.03 5.65223 157.011 5.64221L157.064 5.60974C157.187 5.63432 157.339 5.64737 157.497 5.64737C157.9 5.64403 158.056 5.50077 158.056 5.50077H158.153L158.056 5.61611C157.663 5.67408 157.314 5.86651 157.314 5.86651L156.869 5.75755ZM157.114 5.48226C156.905 5.37511 157.353 5.32777 157.353 5.32777C157.9 5.30834 157.784 5.48165 157.784 5.48165C157.637 5.52688 157.519 5.54387 157.422 5.54569C157.209 5.54994 157.117 5.48317 157.114 5.48226ZM135.781 7.51433C135.468 7.58201 134.92 7.67823 134.217 7.68794L133.904 7.81238L134.647 7.86094L134.803 7.88007L135.468 7.92863C135.468 7.92863 135.506 7.8224 136.015 7.84152C136.015 7.84152 136.367 7.60993 137.773 7.68764C137.773 7.68764 138.008 7.66821 138.32 7.70676C138.438 7.72618 138.555 7.74561 138.671 7.77383L138.515 7.64878C138.515 7.64878 138.671 7.59112 139.061 7.60994C139.061 7.60994 138.905 7.57139 138.788 7.51402C138.623 7.45757 138.528 7.39049 138.515 7.32098C138.502 7.25178 138.983 7.27333 139.453 7.29276V7.18652H139.725L139.218 7.10973C139.218 7.10973 137.927 7.46546 135.504 7.29276C135.025 7.25937 134.565 7.2108 134.137 7.14828C133.708 7.08575 134.607 7.43723 136.092 7.42752C136.094 7.42752 135.977 7.46607 135.781 7.51433ZM129.489 7.51433C130.27 7.572 131.64 7.60144 131.64 7.60144C131.521 7.62966 131.404 7.6588 131.287 7.67823C130.859 7.76504 130.507 7.78446 130.507 7.78446C130.273 7.88037 130.391 8.05459 130.391 8.05459C130.507 8.09314 130.859 8.12137 131.172 8.1505C131.563 8.18905 131.952 8.21819 131.952 8.21819C131.476 8.24217 130.984 8.24217 130.507 8.21819C130.076 8.20848 129.805 8.17904 129.805 8.17904L129.999 8.08282C129.843 7.83211 128.318 7.80358 128.318 7.80358L128.397 7.68824C128.592 7.62997 128.789 7.56319 128.866 7.51463C128.916 7.49703 128.954 7.4776 128.983 7.45726C129.061 7.47669 129.257 7.49581 129.453 7.51463H129.489V7.51433ZM157.316 8.3138C157.198 8.33322 157.12 8.35265 157.12 8.39059C157.12 8.39059 157.198 8.44826 157.706 8.4868C157.706 8.4868 157.784 8.38118 157.666 8.26554C157.664 8.26554 157.471 8.28466 157.316 8.3138ZM139.494 8.13988L139.767 8.12076C139.767 8.12076 139.494 8.06309 139.455 8.02454C139.455 8.02454 139.455 7.94775 139.104 7.88007L139.143 7.94775V8.04397L139.26 8.07311V8.1499L139.494 8.13988ZM140.745 8.4777L140.784 8.62218L141.293 8.4868C141.21 8.48711 141.134 8.47618 141.096 8.45827C140.901 8.41973 140.784 8.36236 140.784 8.36236L140.745 8.4777ZM142.511 7.51797C142.809 7.50977 143.057 7.51463 143.198 7.55652C143.194 7.49521 143.304 7.43359 143.676 7.41811C143.676 7.41811 142.854 7.37926 142.112 7.31157C141.644 7.27303 141.174 7.22477 141.018 7.1671L140.666 7.19624L140.391 7.22477V7.2539C140.391 7.2539 141.134 7.28213 141.525 7.36014V7.32068C141.525 7.32098 142.236 7.35407 142.511 7.51797ZM144.573 7.89949C144.573 7.88007 144.613 7.86095 144.613 7.83181L145.199 7.9863C145.199 7.9863 145.313 8.08252 145.081 8.14019C145.081 8.14019 144.966 8.11196 144.81 8.09253C144.711 8.08039 144.604 8.07402 144.494 8.07341L144.457 7.94805C144.457 7.94775 144.536 7.92863 144.573 7.89949ZM97.0534 2.6401C97.0534 2.6401 102.877 3.37218 103.579 3.51666C104.322 3.66113 103.931 3.75766 103.931 3.75766C103.931 3.75766 103.658 3.85387 102.993 3.89242C102.327 3.92095 102.525 4.05602 102.525 4.05602L102.447 7.47578C105.183 8.14018 107.762 7.78416 107.762 7.78416C108.74 7.70737 108.623 7.4952 108.623 7.4952C108.623 7.4952 108.819 4.27819 108.74 4.17196C108.661 4.05662 108.272 4.05662 108.272 4.05662C108.272 4.05662 105.849 3.68056 105.457 3.61348C105.026 3.54641 105.496 3.44048 105.496 3.44048C105.496 3.44048 109.599 2.73722 110.187 2.60246C110.773 2.4771 111.242 2.55389 111.242 2.55389C111.242 2.55389 118.003 3.48843 118.783 3.63291C119.565 3.77739 119.175 3.82534 119.175 3.82534L117.26 4.29732C116.869 4.39384 117.064 4.48034 117.064 4.48034L116.986 7.63998C116.478 8.44887 111.319 8.56511 111.319 8.56511C105.105 8.58424 102.214 7.92924 102.214 7.92924C99.7509 7.55348 96.8985 7.81329 96.8985 7.81329C93.265 8.12137 92.9903 8.69957 92.9903 8.69957C92.8721 9.11418 94.7488 9.31633 94.7488 9.31633C97.055 9.68237 100.415 9.45078 100.415 9.45078C103.268 9.21039 107.684 8.84405 107.684 8.84405C110.458 8.69957 112.646 8.81491 112.646 8.81491C115.147 8.95058 116.125 9.23953 116.125 9.23953C117.727 9.64382 117.61 10.1638 117.61 10.1638C117.727 11.301 112.06 11.6859 112.06 11.6859C109.521 11.8113 108.818 11.6668 108.818 11.6668C107.019 11.57 108.934 11.5223 108.934 11.5223C108.934 11.5223 105.651 11.57 109.208 11.5314C112.764 11.5029 113.156 11.0795 113.156 11.0795C114.446 10.5107 112.453 10.4145 112.453 10.4145C109.717 10.3185 106.748 10.8673 106.748 10.8673C100.104 11.5991 95.0634 10.9924 95.0634 10.9924C89.9046 10.501 90.5691 9.55702 90.5691 9.55702C90.6857 8.33383 93.8128 7.85245 93.8128 7.85245L93.618 4.06664C93.4614 3.97012 93.0701 3.94159 93.0701 3.94159C93.0701 3.94159 90.9204 3.72943 90.5691 3.61409C90.256 3.49845 90.7639 3.45019 90.7639 3.45019L95.7278 2.641C96.3107 2.43825 97.0534 2.6401 97.0534 2.6401ZM0.759292 2.06219C0.0166194 1.93714 0.837611 1.86976 0.837611 1.86976L8.30251 0.520916H28.0367C32.2962 0.617132 31.9449 1.96567 31.9449 1.96567L31.8666 6.93582C24.9494 7.26331 21.6274 8.70868 21.6274 8.70868C15.1782 8.25613 4.1196 8.66042 4.1196 8.66042C3.14222 8.67954 3.80658 8.49652 3.80658 8.49652C7.63655 6.8396 14.9834 6.88816 14.9834 6.88816C15.4577 6.88574 15.9224 6.88877 16.3744 6.89606L16.4128 2.11258L0.759292 2.06219ZM10.6072 2.33172C12.0526 2.16812 11.7794 2.40911 11.7794 2.40911V5.17327C11.6629 6.33879 7.94958 6.97497 7.94958 6.97497C6.85558 7.34132 2.67428 7.76473 2.67428 7.76473C1.22883 7.89949 2.08812 7.55257 2.08812 7.55257C3.45525 7.05237 3.45525 6.69513 3.45525 6.69513V3.37219C3.45525 3.27597 3.61177 3.23742 3.61177 3.23742L10.6072 2.33172ZM17.0356 6.90971C20.4519 6.9944 22.9578 7.29276 22.9578 7.29276L22.9067 5.15567L22.854 5.16538C22.846 5.16296 20.1117 4.27334 17.0485 5.19816L17.0356 6.90971ZM22.9003 4.93896L22.8795 4.04266C21.8334 4.28396 19.3946 4.68977 17.0563 3.93855L17.0485 4.95322C19.623 4.30915 21.9388 4.71041 22.9003 4.93896ZM22.8731 3.80895L22.838 2.3126C23.1111 2.06219 21.7056 2.12957 21.7056 2.12957L17.0723 2.1147L17.0611 3.6496C19.6821 4.72012 22.6048 3.88969 22.8731 3.80895ZM76.8082 1.46517C76.8082 1.46517 85.4056 0.781336 86.4996 0.713954C87.6319 0.646573 87.5553 0.781335 87.5553 0.781335C87.5553 0.781335 87.3221 6.81107 87.517 7.02323C87.7118 7.23539 88.103 7.17772 88.103 7.17772C88.103 7.17772 90.0963 7.52465 90.526 7.5723C90.9955 7.62056 90.7607 7.73589 90.7607 7.73589L85.915 8.66103C85.915 8.66103 78.0204 7.80358 77.3959 7.70767C76.6149 7.5723 77.1228 7.49551 77.1228 7.49551L78.5299 7.14858C78.5299 7.14858 78.763 2.21699 78.3734 1.95687C77.9821 1.69645 76.7316 1.59052 76.7316 1.59052C76.4568 1.48429 76.8082 1.46517 76.8082 1.46517ZM67.1567 2.48621C67.4299 2.64981 68.1326 2.62127 68.1326 2.62127C71.2597 2.3129 72.5104 1.58081 72.5104 1.58081C73.2913 0.858432 71.4547 0.666 71.4547 0.666C69.8128 0.425005 68.6022 0.617437 68.6022 0.617437C66.7255 0.867841 66.2177 1.34983 66.2177 1.34983C65.7497 1.9854 67.1567 2.48621 67.1567 2.48621ZM65.7497 2.81371C65.7497 2.81371 60.6692 3.58435 60.2779 3.72882C59.8867 3.8733 60.2013 3.94129 60.2013 3.94129C60.2013 3.94129 62.3893 4.27819 62.9754 4.33586C63.5999 4.38412 63.3652 4.46122 63.3652 4.46122L63.5217 6.96556C63.5999 7.03324 63.5217 7.20625 63.5217 7.20625C63.5217 7.20625 62.6608 7.37987 62.1929 7.47608C61.6466 7.59142 62.0746 7.70767 62.0746 7.70767L69.931 8.68045C69.931 8.68045 75.2446 7.7365 75.7141 7.68824C76.1821 7.63998 75.7141 7.54377 75.7141 7.54377C75.7141 7.54377 73.4079 7.21627 73.0182 7.16801C72.6284 7.11945 72.785 7.02353 72.785 7.02353C72.785 7.02353 72.4719 4.54742 72.7068 4.33556C72.9016 4.13342 73.1747 4.20049 73.1747 4.20049C73.1747 4.20049 73.8775 4.15253 74.5035 4.05602C75.0897 3.9598 74.5434 3.873 74.5434 3.873C74.5434 3.873 67.235 2.92935 66.6888 2.81371C66.1393 2.69807 65.7497 2.81371 65.7497 2.81371ZM33.3711 6.98438C33.3519 6.96526 33.9764 8.43915 41.6362 8.68015L46.7167 7.66912C46.7167 7.66912 46.9898 7.55287 47.381 7.64909L55.9785 8.68015L61.2154 7.66912C61.2154 7.66912 61.4502 7.55287 61.0588 7.43754L57.4238 6.83991V4.38351C57.4238 4.38351 57.3855 4.26818 57.6969 4.24905L59.104 3.96982C59.104 3.96982 59.3388 3.8733 58.8708 3.74825C58.4396 3.61348 49.8822 2.57332 49.8822 2.57332C49.8822 2.57332 49.5692 2.45798 48.7866 2.59244C48.7866 2.59244 39.4466 3.51727 35.7731 4.7016C35.7747 4.7016 32.8441 5.16386 33.3711 6.98438ZM40.6987 6.19493C40.9334 6.30025 39.135 5.56846 39.9959 4.76898C39.9959 4.76898 40.1142 4.06603 43.4346 3.7097L47.9289 4.43208L47.8507 7.28304C47.8507 7.28304 47.2645 7.52434 45.8191 7.36044C45.8191 7.36044 42.1057 6.90789 40.6987 6.19493ZM256.07 2.8905C256.07 2.8905 250.992 3.65142 250.598 3.80561C250.209 3.95009 250.52 4.01747 250.52 4.01747C250.52 4.01747 252.71 4.35438 253.296 4.40294C253.92 4.4515 253.686 4.5377 253.686 4.5377L253.842 7.04205C253.92 7.10973 253.842 7.28244 253.842 7.28244C253.842 7.28244 252.98 7.44634 252.514 7.54316C251.967 7.6585 252.398 7.77383 252.398 7.77383L260.253 8.75633C260.253 8.75633 265.568 7.81238 266.036 7.75441C266.504 7.70676 266.036 7.60994 266.036 7.60994C266.036 7.60994 263.768 7.28243 263.34 7.23478C262.948 7.18652 263.104 7.09031 263.104 7.09031C263.104 7.09031 262.792 4.6148 263.025 4.40294C263.222 4.21051 263.497 4.26818 263.497 4.26818C263.497 4.26818 264.198 4.21992 264.826 4.1237C265.412 4.02748 264.862 3.95069 264.862 3.95069C264.862 3.95069 257.554 3.00644 257.007 2.8908C256.5 2.77516 256.07 2.8905 256.07 2.8905ZM178.377 2.0716C177.167 1.908 178.027 1.83061 178.027 1.83061L184.123 0.867537C184.434 0.800156 184.709 0.896674 184.709 0.896674L190.259 1.69615C190.259 1.69615 197.761 0.713654 198.269 0.636863C198.581 0.5883 198.856 0.655981 198.856 0.655981L205.189 1.52284L211.558 0.540342C212.26 0.395866 212.455 0.492083 212.455 0.492083L219.92 1.5711C220.545 1.66731 220.27 1.69615 220.27 1.69615V6.68602C220.545 7.30186 222.657 7.54346 222.657 7.54346C223.243 7.6588 222.968 7.74591 222.968 7.74591L217.221 8.75694C212.26 8.34233 211.792 7.35073 211.792 7.35073V2.58212C211.674 2.41853 211.206 2.37998 211.206 2.37998L207.368 1.89799L207.398 4.01717H211.518L207.417 5.47436L207.442 7.22871L210.309 7.70676C210.698 7.8224 210.076 7.84152 210.076 7.84152L204.134 8.75633L195.302 7.60053C194.482 7.46516 195.106 7.38837 195.106 7.38837L197.021 7.09001V5.55814H192.816L192.832 7.52465L194.249 7.74561C194.68 7.86095 194.17 7.93774 194.17 7.93774L188.269 8.75633L180.57 7.75441C179.906 7.64818 180.607 7.56259 180.607 7.56259L182.797 7.25421V2.84254L178.575 2.09133L178.377 2.0716ZM206.839 1.8385C205.673 1.74926 205.853 1.92773 205.853 1.92773L205.931 3.86358V4.01777H206.871L206.839 1.8385ZM206.889 5.55874H205.931V6.97497C205.968 7.01352 206.439 7.06117 206.439 7.06117L206.91 7.14039L206.889 5.55874ZM192.814 5.28466L196.277 4.01747H197.02V2.58212C196.904 2.50533 196.473 2.42824 196.473 2.42824L192.792 1.95626L192.814 5.28466ZM192.263 1.9253C191.184 1.93107 191.121 2.11076 191.121 2.11076L191.04 7.25451C191.04 7.28304 191.392 7.30217 191.392 7.30217L192.3 7.4436L192.263 1.9253ZM223.7 6.98438C223.68 6.96526 224.304 8.43915 231.966 8.68015L237.045 7.66912C237.045 7.66912 237.319 7.55287 237.71 7.64909L246.307 8.68015L251.543 7.66912C251.543 7.66912 251.777 7.55287 251.387 7.43754L247.754 6.83991V4.38351C247.754 4.38351 247.717 4.26818 248.029 4.24905L249.435 3.96982C249.435 3.96982 249.669 3.8733 249.202 3.74825C248.771 3.61348 240.212 2.57332 240.212 2.57332C240.212 2.57332 239.9 2.45798 239.117 2.59244C239.117 2.59244 229.777 3.51727 226.103 4.7016C226.101 4.7016 223.173 5.16386 223.7 6.98438ZM231.027 6.19493C231.261 6.30025 229.464 5.56846 230.326 4.76898C230.326 4.76898 230.44 4.06603 233.763 3.7097L238.258 4.43208L238.179 7.28304C238.179 7.28304 237.593 7.52434 236.146 7.36044C236.146 7.36044 232.434 6.90789 231.027 6.19493ZM267.13 1.46517C267.13 1.46517 275.685 0.781336 276.822 0.713954C277.914 0.646573 277.876 0.781335 277.876 0.781335C277.876 0.781335 277.642 6.87875 277.836 7.09091C278.033 7.30216 278.422 7.25451 278.422 7.25451C278.422 7.25451 280.415 7.60144 280.846 7.64909C281.314 7.69735 281.079 7.81269 281.079 7.81269L276.236 8.73781C276.236 8.73781 268.34 7.88037 267.716 7.77475C266.934 7.64939 267.441 7.56319 267.441 7.56319L268.849 7.22568C268.849 7.22568 269.081 2.20758 268.692 1.94716C268.302 1.68704 267.052 1.59113 267.052 1.59113C266.779 1.47458 267.13 1.46517 267.13 1.46517ZM257.478 2.5633C257.752 2.72721 258.453 2.69807 258.453 2.69807C261.582 2.37998 262.832 1.64819 262.832 1.64819C263.611 0.935222 261.775 0.742791 261.775 0.742791C260.135 0.492387 258.925 0.694225 258.925 0.694225C257.045 0.944629 256.542 1.42662 256.542 1.42662C256.07 2.06219 257.478 2.5633 257.478 2.5633Z" fill="black"/>
</svg>
